<?xml version="1.0" encoding="utf-8"?>
<!-- Generator: Adobe Illustrator 19.0.0, SVG Export Plug-In . SVG Version: 6.00 Build 0)  -->
<svg version="1.2" baseProfile="tiny" id="Capa_1" xmlns="http://www.w3.org/2000/svg" xmlns:xlink="http://www.w3.org/1999/xlink"
	 x="0px" y="0px" viewBox="0 0 841.9 595.3" xml:space="preserve">
<path id="XMLID_688_" fill="none" stroke="#566B77" stroke-miterlimit="10" d="M502.1,236.5c-1.1,8.6-2.1,16.7-3.2,24.8
	c-0.9,6.7-1.9,13.3-3.1,19.9c-0.3,1.6-1.5,3.3-2.7,4.5c-7.5,6.7-16.8,9.2-26.3,10.9c-33.1,5.6-66.2,5.7-99.2-1.1
	c-6.3-1.3-12.4-4.3-18.2-7.1c-4.6-2.2-6.6-6.3-6.6-11.7c0-26.8-3.7-53.3-8-79.6c-2.9-17.6-6.4-35.1-9.6-52.6
	c0.2,0.1,0.9,0.3,1.5,0.7c9.5,6.1,20.2,7.9,31.1,9c27.6,2.7,55.2,4.1,82.9,3c17.9-0.7,35.9-2,53.7-3.7c9.7-0.9,19.3-3.4,27.6-8.5
	c-6.8,29.3-13.5,58.4-20.3,87.7c-7.5,2.2-15.4,5.6-23.7,6.8c-14.6,2-29.4,3.2-44.2,3.7c-25.1,0.9-50-0.6-74.6-5.9
	c-4.9-1.1-9.5-3.4-14.3-5.1c-1-0.4-2.3-0.2-3.4-0.3c0.1,1.4-0.3,3.6,0.4,4.2c2.9,2.1,5.9,4.6,9.3,5.5c27.3,7.1,54.9,11.3,83.2,10.4
	c18.6-0.6,37.1-2.5,54.6-9.4C493.4,240.9,497.5,238.7,502.1,236.5z M516.9,152.4c-0.2-0.2-0.5-0.4-0.7-0.6c-0.7,1.3-1.5,2.5-2,3.8
	c-8.8,23.3-12.9,47.9-17.7,72.2c-0.2,0.9,0.7,2,1,2.9c0.5-0.8,1.3-1.6,1.5-2.4c2.4-12.1,4.2-24.4,7.1-36.4
	C509.4,178.6,513.3,165.6,516.9,152.4z M331.8,151.1c-0.4,0.2-0.7,0.3-1.1,0.5c0.3,1,0.5,2.1,0.8,3.1c2.5,11.2,5.2,22.4,7.4,33.6
	c2.4,12.4,4.3,24.8,6.4,37.2c0.2,1.2,0.9,2.3,1.4,3.4c0.4-0.1,0.8-0.1,1.2-0.2c0-1.2,0.2-2.4,0-3.6c-1.8-10.4-3.5-20.7-5.6-31
	c-2.7-13-5.7-26-8.6-39C333.4,153.7,332.4,152.5,331.8,151.1z M480.7,285.8c3.2-0.3,5.3-0.6,5.5-4.1c0.9-10.6,2-21.2,3.1-31.7
	c0.1-1.1-0.1-2.3-0.2-3.4c-0.5-0.2-0.9-0.3-1.4-0.5c-0.8,1.5-2.1,2.9-2.4,4.4c-1.3,7.7-2.4,15.5-3.4,23.2
	C481.4,277.7,481.1,281.7,480.7,285.8z M498.2,242.8c-0.4-0.2-0.8-0.5-1.1-0.7c-1.2,1.3-3.2,2.5-3.4,3.9c-1.7,10.5-3.2,21-4.5,31.6
	c-0.2,1.2,1,2.6,1.6,3.9c1.2-1.2,2.5-2.3,3.5-3.6c0.5-0.7,0.1-1.9,0.2-2.9c0.9-8.6,1.7-17.3,2.7-25.9
	C497.2,247,497.8,244.9,498.2,242.8z M506.3,162.9c-0.4-0.2-0.9-0.3-1.3-0.5c-0.9,2.4-1.9,4.9-2.8,7.3c-5.8,17.8-9.3,36.2-11.7,54.8
	c-0.2,1.7-2.3,4,0.6,5.4c0.7-1.7,1.8-3.3,2-5c1.9-19.6,6.3-38.6,11.9-57.4C505.4,166.1,505.9,164.5,506.3,162.9z M339.7,160.9
	c4,24.2,7.9,47.7,11.8,71.1c0.1,0.7,0.7,1.2,1.1,2C355,230,344,168.9,339.7,160.9z M353.4,265.5c0.2,0,0.5,0,0.7,0
	c0,0.6,0,1.2,0,1.8c0.2,5,0.3,10,0.8,15c0.1,1.1,1.8,2.1,2.7,3.2c0.6-1.1,1.7-2.2,1.6-3.3c-0.1-3.7-0.6-7.3-0.9-10.9
	c-0.5-6.9-0.8-13.9-1.4-20.8c-0.1-1.1-1.5-2.2-2.2-3.2c-0.5,1.1-1.3,2.2-1.3,3.3C353.3,255.5,353.4,260.5,353.4,265.5z M349.4,244.7
	c-0.6,0-1.3,0.1-1.9,0.1c-0.1,1.5-0.2,3-0.2,4.4c0.3,9.3,0.8,18.6,0.8,27.8c0,3,1.1,4.4,4.4,5.5C352.1,269.6,353,256.9,349.4,244.7z
	"/>
<path id="XMLID_673_" fill="none" stroke="#566B77" stroke-miterlimit="10" d="M504,260.5c8.2,1.7,16.2,3,24,5.2
	c7.1,2,13.9,5,20.8,7.6c1.3,0.5,2.5,1.5,3.7,2.4c8.3,6.4,9,15.6,0.9,22.4c-4.4,3.7-9.7,6.5-14.8,9.1c-23.9,12.1-49.5,18.7-76,21.4
	c-31.5,3.2-62.8,2.5-94-3c-23.8-4.2-47.4-9.5-69.2-20.6c-4-2-7.9-4.5-11.1-7.5c-7.3-6.8-7.3-15,0.6-21c5.9-4.5,12.8-7.9,19.6-10.8
	c5.7-2.5,12-3.7,18.1-5.4c1.5-0.4,3.1-0.7,4.6-0.8c5.3-0.5,5.4-0.5,5.4,4.7c0,6-0.1,12,0,18c0,1.1,0.7,2.5,1.6,3.3
	c18.1,17.1,40.8,21.6,64.4,23.3c23.7,1.8,47.1-0.9,70-6.7c5.9-1.5,11.8-4,17.2-6.9c8-4.4,12.9-11.2,13.1-20.9
	C503,269.9,503.6,265.6,504,260.5z M548.1,297.6c-0.2-0.3-0.5-0.6-0.7-0.8c-2.2,1-4.4,2-6.6,3.2c-23.7,12.4-49,19.1-75.4,22.1
	c-23.9,2.7-47.7,1.9-71.6-0.6c-32.7-3.5-64-12.2-94.8-23.3c-4-1.4-8.4-3.1-9.8-8.3c-0.1,1.7,0,3.6,1,4.4c3.5,2.5,7.1,5.4,11.1,6.8
	c12.1,4.4,24.3,8.4,36.6,12.1c22.3,6.7,45.3,10.1,68.4,11.6c14.5,1,29.1,1.4,43.6,0.7c12.6-0.6,25-3,37.5-5
	c17.7-2.9,34.9-7.6,50.7-16.2C541.7,302.3,544.8,299.8,548.1,297.6z M505.8,266.3c0,0.4,0,0.8,0,1.2c0.2,0.2,0.5,0.6,0.7,0.7
	c8.5,1,16.9,2.5,24.7,6.4c0.4,0.2,1.5-0.2,1.8-0.6c0.2-0.4,0-1.5-0.4-1.9c-0.6-0.7-1.5-1.3-2.4-1.5c-4.8-1.5-9.7-3.2-14.6-4.1
	C512.4,265.8,509.1,266.3,505.8,266.3z M306.5,271.9c8.1-3.7,16.5-5.7,25.3-5.3c0.5,0,1-1.1,1.5-1.6c-0.7-0.3-1.4-1-2.1-1
	c-4.1,0.4-8.2,0.9-12.2,1.7C314.3,266.6,309.8,267.9,306.5,271.9z"/>
<path id="XMLID_667_" fill="none" stroke="#566B77" stroke-miterlimit="10" d="M433,122.7c21.6,0.5,50.7,1.3,79.4,7.2
	c3.4,0.7,6.8,1.9,10,3.2c1.2,0.5,2.7,1.9,2.7,2.9c0,1-1.4,2.4-2.5,3.2c-6.6,4.6-14.3,5.3-21.9,6.1c-29.7,3-59.5,5-89.4,3.8
	c-21.8-0.9-43.7-1.1-65.2-5.2c-5.8-1.1-11.7-2.1-17.4-3.9c-2.2-0.7-3.9-3.2-5.8-4.9c1.9-1.9,3.5-4.9,5.8-5.5
	c6-1.6,12.3-2.5,18.6-3.2C373.3,123.7,399.4,122.3,433,122.7z"/>
<path id="XMLID_646_" fill="none" stroke="#566B77" stroke-miterlimit="10" d="M492.9,351.4c-1.7,7.2-3.2,14.5-5.2,21.7
	c-1.3,4.9-5.4,6.7-9.9,6.3c-5.7-0.5-11.4-1.8-17-2.9c-2.5-0.5-4.8-1.7-7.2-2.3c-13.4-3.5-20.6-13.9-19-27.9c0.9-8.3,0.9-8.6,9.1-9.5
	c10.7-1.1,21.5-1.9,32.2-2.2C487.8,334.2,492.3,339.1,492.9,351.4z M482.8,341.1c-0.9-0.7-1.9-2.3-2.9-2.3c-1.4,0-3.5,1-3.9,2.1
	c-3.3,9.9-6.4,20-9.2,30.1c-0.3,1.1,1.2,2.7,1.9,4c0.9-0.8,2.4-1.4,2.8-2.5c3.2-8.7,6.3-17.4,9.4-26.1
	C481.5,344.9,482,343.4,482.8,341.1z M472.2,338.3c-0.2-0.3-0.3-0.7-0.5-1c-1.5,0.8-4,1.3-4.5,2.5c-3.6,10.2-6.9,20.6-10.3,31.1
	c1.5,0.6,3.1,1.1,4.3,1.6C465,361,468.6,349.6,472.2,338.3z M462.8,338.6c-3.1-1-4.7-0.2-5.6,2.8c-2.4,7.5-5.1,15-7.6,22.5
	c-0.9,2.8,0.4,4,3.3,4.6C456.2,358.4,459.5,348.5,462.8,338.6z M454.1,338.8c-0.3-0.3-0.7-0.6-1-0.9c-1.2,1.4-2.6,2.6-3.4,4.2
	c-1.7,3.5-3.1,7.1-4.6,10.8c-0.8,2-1.7,4.1-2,6.2c-0.1,1,1,2.1,1.6,3.2c1.1-0.6,2.8-1,3.1-1.8C450,353.3,452,346,454.1,338.8z
	 M486.5,345.3c-0.5,0-1.1,0.1-1.6,0.1c-3.4,9.9-6.7,19.8-10.1,29.8c0.3,0.2,0.6,0.4,0.8,0.7c0.8-0.5,2-0.8,2.3-1.5
	c3.2-8.4,6.3-16.9,9.2-25.5C487.4,347.9,486.7,346.5,486.5,345.3z M441.8,351.2c0.3,0.1,0.6,0.2,1,0.3c1.8-3.9,3.6-7.8,5.7-12.4
	C444.8,340.3,441.4,347.4,441.8,351.2z M480.8,373.9c0.4,0.2,0.7,0.3,1.1,0.5c3-3.7,3.2-8.5,5.1-12.6c-0.4-0.2-0.7-0.3-1.1-0.5
	C484.2,365.5,482.5,369.7,480.8,373.9z"/>
<path id="XMLID_640_" fill="none" stroke="#566B77" stroke-miterlimit="10" d="M351.2,357.4c-0.1-13.4,10.5-23.5,25-23.6
	c14.1-0.1,24.3,9.3,24.5,22.6c0.2,15-8.5,25.2-22.1,25C363.9,381.3,351.1,373.2,351.2,357.4z M397.2,357.5
	c-0.1-11.6-9.4-21-20.9-21.1c-11.6-0.1-21.4,9.6-21.4,21.1c0,11.4,10.1,20.4,22.8,20.4C389.3,378,397.3,369.7,397.2,357.5z"/>
<path id="XMLID_632_" fill="none" stroke="#EB596E" stroke-miterlimit="10" d="M414.7,344.8c-0.8,0-1.7,0.2-2.5,0.1
	c-1.7-0.1-3-2.7-1.8-3.6c1.2-0.8,3.1-1,4.7-0.8c1.4,0.1,2.8,1,4.1,1.5c-0.5,0.9-0.9,2.2-1.7,2.7
	C416.9,345.2,415.6,344.8,414.7,344.8C414.7,344.8,414.7,344.8,414.7,344.8z"/>
<path id="XMLID_631_" fill="none" stroke="#EB596E" stroke-miterlimit="10" d="M415.3,351.6c-0.8,0-1.9,0.3-2.5-0.1
	c-0.9-0.7-1.6-1.8-2.3-2.8c0.8-0.6,1.5-1.5,2.3-1.6c1.5-0.2,3.2-0.2,4.6,0.2c0.9,0.3,1.6,1.3,2.4,2.1c-0.9,0.7-1.8,1.5-2.8,2
	c-0.5,0.3-1.2,0-1.8,0C415.3,351.5,415.3,351.5,415.3,351.6z"/>
<path id="XMLID_630_" fill="none" stroke="#EB596E" stroke-miterlimit="10" d="M391.1,384.2c1.9-2.6,3.7-5.1,5.6-7.4
	c0.5-0.5,1.5-0.5,2.3-0.8c-0.1,0.9,0.2,2-0.2,2.5c-1.6,2-3.2,4-5.2,5.5C392.9,384.7,391.3,384.2,391.1,384.2z"/>
<path id="XMLID_629_" fill="none" stroke="#EB596E" stroke-miterlimit="10" d="M407.8,373.8c0.9-0.8,2.1-0.6,2.6,2.1
	c0.7,4-1.1,7.8-4.5,8.5C406.5,381.2,407.1,378.1,407.8,373.8z"/>
<path id="XMLID_628_" fill="none" stroke="#EB596E" stroke-miterlimit="10" d="M397.1,385c1.7-2.3,3.1-4.4,4.8-6.3
	c0.5-0.5,1.6-0.5,2.5-0.7c0,0.8,0.3,1.8,0,2.5c-0.8,1.6-2,3.1-2.9,4.6C400.1,387.3,398.9,386.7,397.1,385z"/>
<path id="XMLID_626_" fill="none" stroke="#EB596E" stroke-miterlimit="10" d="M412.4,365.2c3.6-1.3,6-0.3,7.6,1.7
	c0.6,0.8-0.5,2.9-1,5.5C416.3,369.5,414.6,367.6,412.4,365.2z"/>
<path id="XMLID_625_" fill="none" stroke="#EB596E" stroke-miterlimit="10" d="M408.5,335.9c3.3-2.3,6.2-1.3,9-0.5
	c0.3,0.1,0.1,1.6,0.2,2.5C414.7,337.9,411.5,339,408.5,335.9z"/>
<path id="XMLID_623_" fill="none" stroke="#EB596E" stroke-miterlimit="10" d="M413.3,378c-0.7-2.9-1.5-5.9-2.3-9.1
	c3.5,0.5,4.5,3,4.9,5.4c0.2,1.3-0.9,2.7-1.3,4.1C414.1,378.3,413.7,378.2,413.3,378z"/>
<path id="XMLID_622_" fill="none" stroke="#EB596E" stroke-miterlimit="10" d="M412.1,354.3c2.5,0,5,0,7.4,0c0.3,0,0.8,0.8,0.7,1
	c-0.2,0.6-0.8,1.6-1.2,1.6c-2.4,0-4.7-0.3-7.1-0.5C412,355.7,412,355,412.1,354.3z"/>
<path id="XMLID_621_" fill="none" stroke="#EB596E" stroke-miterlimit="10" d="M413.3,359.2c2.2,0.3,4.4,0.5,6.6,1.1
	c0.5,0.1,0.7,1.5,1,2.3c-0.7,0.2-1.5,0.8-2.1,0.6c-2.1-0.7-4-1.6-6-2.4C412.9,360.2,413.1,359.7,413.3,359.2z"/>
<path id="XMLID_582_" fill="none" stroke="#EB596E" stroke-miterlimit="10" d="M397.2,357.5c0.1,12.1-7.9,20.4-19.5,20.4
	c-12.7,0-22.8-9.1-22.8-20.4c0-11.5,9.8-21.1,21.4-21.1C387.8,336.5,397.1,346,397.2,357.5z M376.2,340.9
	c-9.7-0.1-16.1,6.8-16.1,17.3c0,8.3,7.9,15.6,17,15.9c8.1,0.2,14.5-7.4,14.7-17.3C391.9,347.7,385.4,341,376.2,340.9z"/>
</svg>
